<svg id="Capa_1" enable-background="new 0 0 511.99 511.99" height="512" viewBox="0 0 511.99 511.99" width="512" xmlns="http://www.w3.org/2000/svg"><g><g><path d="m491.636 279.27v35.54h-65.96v132.59h-121.95v64.59h-78.85l-64.136-251.383 64.136-260.607c110.62.99 200.08 90.63 200.79 201.32z" fill="#f9a58d"/><path d="m224.876 0v511.99h-129.18c0-82.77-19.64-165.33-58.59-238.48-11.69-21.94-16.85-46.1-16.75-70.85 0-111.93 92.58-202.66 204.52-202.66z" fill="#ffbda9"/></g><g><g><path d="m224.992 115.878-29.18 72.41 29.18 96.863v.001l89.772-89.776c23.061-23.061 23.061-61.573 0-84.634-23.367-23.374-66.683-21.047-89.772 5.136z" fill="#ff4a4a"/><path d="m224.992 115.878v169.272.001l-90.006-89.776c-23.061-23.061-23.061-61.573 0-84.634 23.369-23.373 66.918-21.046 90.006 5.137z" fill="#ff6c6c"/></g></g></g></svg>